<?xml version="1.0" encoding="UTF-8" standalone="no"?>
<svg width="112px" height="21px" viewBox="0 0 112 21" version="1.1" xmlns="http://www.w3.org/2000/svg" xmlns:xlink="http://www.w3.org/1999/xlink" xmlns:sketch="http://www.bohemiancoding.com/sketch/ns">
    <!-- Generator: Sketch 3.0.4 (8053) - http://www.bohemiancoding.com/sketch -->
    <title>RelayRobin_Logo_eps [2014-02-08] 2</title>
    <desc>Created with Sketch.</desc>
    <defs></defs>
    <g id="Comps" stroke="none" stroke-width="1" fill="none" fill-rule="evenodd" sketch:type="MSPage">
        <g id="Table-(Default)-[AL-2014-08-04]" sketch:type="MSArtboardGroup" transform="translate(-31.000000, -18.000000)">
            <g id="Group" sketch:type="MSLayerGroup">
                <g id="RelayRobin_Logo_eps-[2014-02-08]-2" transform="translate(31.000000, 19.000000)" sketch:type="MSShapeGroup">
                    <g id="RelayRobin_Logo_eps-[2014-02-08]">
                        <path d="M44.6449498,10.1176471 C44.6449498,9.61759104 44.3765957,8.67652661 43.1085599,8.67652661 L41.1702068,8.67652661 L41.1702068,11.5740056 L43.1687748,11.5740056 C44.3765957,11.5444258 44.6449498,10.5740056 44.6449498,10.1176471 L44.6449498,10.1176471 Z M41.1702068,16.8238655 C41.1702068,16.9560784 41.0507994,17.0738375 40.9171904,17.0738375 L39.3359232,17.0738375 C39.2023142,17.0738375 39.0829069,16.9560784 39.0829069,16.8238655 L39.0829069,7.02946779 C39.0829069,6.89714286 39.2023142,6.77938375 39.3359232,6.77938375 L43.0340297,6.77938375 C45.8976479,6.77938375 46.7623572,8.74991597 46.7623572,10.1176471 C46.7623572,11.6032493 45.8824237,12.6766387 44.7045967,13.1766947 L46.4638956,16.8529972 C46.5087728,16.9560784 46.4343562,17.0738375 46.3149488,17.0738375 L44.5255425,17.0738375 C44.3765957,17.0738375 44.2276489,16.9857703 44.167434,16.8529972 L42.5719652,13.5001681 L41.1702068,13.5001681 L41.1702068,16.8238655 L41.1702068,16.8238655 Z" id="Fill-1" fill="#293337"></path>
                        <path d="M52.116261,12.5589916 C52.1013777,11.9563025 51.8923296,11.4119888 51.0271658,11.3968627 C50.1926776,11.3968627 49.6702845,11.8829132 49.4469212,12.5589916 L52.116261,12.5589916 L52.116261,12.5589916 Z M54.0693838,13.4856022 C54.0693838,13.632493 53.9499765,13.7355742 53.8010297,13.7355742 L49.3871607,13.7355742 C49.5061136,14.6033613 50.0580461,15.3529412 51.0271658,15.3529412 C51.5790983,15.3529412 52.1605701,15.1769188 52.6829632,14.8387675 C52.8022569,14.7648179 52.9512037,14.7794958 53.040958,14.8971429 L53.7266131,15.8237535 C53.8163675,15.9415126 53.78626,16.1034174 53.6816223,16.1914846 C52.8466796,16.8238655 52.0412764,17.1617927 51.0271658,17.1617927 C48.1793398,17.1617927 47.2994063,14.9706443 47.2994063,13.382521 C47.2994063,11.8386555 48.1793398,9.61759104 51.0271658,9.61759104 C53.0109642,9.61759104 54.114261,10.8677871 54.114261,12.7792717 C54.114261,13.0147899 54.0994913,13.2501961 54.0693838,13.4856022 L54.0693838,13.4856022 Z" id="Fill-4" fill="#293337"></path>
                        <path d="M57.6042282,16.8238655 C57.6042282,16.9560784 57.4849345,17.0738375 57.3501894,17.0738375 L55.8143675,17.0738375 C55.6801904,17.0738375 55.5608966,16.9560784 55.5608966,16.8238655 L55.5608966,7.01445378 C55.5608966,6.88257703 55.6801904,6.76481793 55.8143675,6.76481793 L57.3501894,6.76481793 C57.4849345,6.76481793 57.6042282,6.88257703 57.6042282,7.01445378 L57.6042282,16.8238655" id="Fill-5" fill="#293337"></path>
                        <path d="M63.1515015,14.1178711 C62.9275701,14.0590476 62.5694616,13.9564146 62.2266909,13.9564146 C61.6303357,13.9564146 61.0187564,14.1178711 61.0187564,14.8090756 C61.0187564,15.2503081 61.4365118,15.4857143 61.8986899,15.4857143 C62.4506223,15.4857143 62.9724473,15.1769188 63.1515015,14.9122689 L63.1515015,14.1178711 L63.1515015,14.1178711 Z M62.4205148,9.5880112 C64.9709017,9.5880112 65.1790409,11.2208403 65.1790409,12.7210084 L65.1790409,16.8238655 C65.1790409,16.9560784 65.0602016,17.0738375 64.9261382,17.0738375 L64.031435,17.0738375 C63.8823746,17.0738375 63.7477431,16.9706443 63.7028659,16.8384314 L63.6284493,16.6034734 C63.1662712,16.9857703 62.5250389,17.1915966 61.8543808,17.2212885 C59.5278117,17.3239216 59.0952866,15.7794958 59.0952866,14.9122689 C59.0952866,12.8970308 60.7505159,12.4704762 62.2863378,12.4704762 C62.5995691,12.4704762 62.8825793,12.5147339 63.1515015,12.5741176 C63.1515015,11.5444258 62.8081627,11.3677311 62.1522743,11.3677311 C61.839043,11.3677311 61.0932866,11.5297479 60.3924074,11.7942857 C60.2587984,11.8386555 60.1092835,11.7792717 60.0496366,11.647507 L59.6022282,10.6031373 C59.5425814,10.4709244 59.6022282,10.3234734 59.7216356,10.249972 C60.5566919,9.86767507 61.4513951,9.5880112 62.4205148,9.5880112 L62.4205148,9.5880112 Z" id="Fill-6" fill="#293337"></path>
                        <path d="M68.7584217,16.4857143 L65.8055036,9.95619048 C65.7610809,9.83854342 65.8356111,9.72078431 65.9549048,9.72078431 L67.7590809,9.72078431 C67.9080276,9.72078431 68.0575425,9.8087395 68.1024197,9.95619048 L69.8025261,14.147563 L71.5317175,9.95619048 C71.5765947,9.8087395 71.7255415,9.72078431 71.8750563,9.72078431 L73.6343552,9.72078431 C73.7536489,9.72078431 73.8286336,9.83854342 73.7837564,9.95619048 L69.563825,19.7651541 C69.5041781,19.9120448 69.3546633,20 69.2057165,20 L67.5504872,20 C67.4311934,20 67.3417799,19.8829132 67.3867707,19.7651541 L68.7584217,16.4857143" id="Fill-7" fill="#293337"></path>
                        <path d="M80.762782,10.1176471 C80.762782,9.61759104 80.4939734,8.67652661 79.2269601,8.67652661 L77.2880389,8.67652661 L77.2880389,11.5740056 L79.2860389,11.5740056 C80.4939734,11.5444258 80.762782,10.5740056 80.762782,10.1176471 L80.762782,10.1176471 Z M77.2880389,16.8238655 C77.2880389,16.9560784 77.1693132,17.0738375 77.0345681,17.0738375 L75.4543234,17.0738375 C75.3195783,17.0738375 75.2002845,16.9560784 75.2002845,16.8238655 L75.2002845,7.02946779 C75.2002845,6.89714286 75.3195783,6.77938375 75.4543234,6.77938375 L79.1525435,6.77938375 C82.0151392,6.77938375 82.8801894,8.74991597 82.8801894,10.1176471 C82.8801894,11.6032493 82.000824,12.6766387 80.8225425,13.1766947 L82.5822958,16.8529972 C82.6267185,16.9560784 82.5521883,17.0738375 82.4328946,17.0738375 L80.6434882,17.0738375 C80.4939734,17.0738375 80.3451402,16.9857703 80.2859478,16.8529972 L78.6902518,13.5001681 L77.2880389,13.5001681 L77.2880389,16.8238655 L77.2880389,16.8238655 Z" id="Fill-8" fill="#293337"></path>
                        <path d="M89.0543797,13.3970868 C89.0543797,12.8970308 88.845218,11.3531653 87.3541597,11.3531653 C85.8632149,11.3531653 85.6392835,12.8970308 85.6392835,13.3970868 C85.6392835,13.8971429 85.8632149,15.4268908 87.3541597,15.4268908 C88.845218,15.4268908 89.0543797,13.8971429 89.0543797,13.3970868 L89.0543797,13.3970868 Z M91.0671494,13.3970868 C91.0671494,14.9857703 90.2173234,17.2061625 87.3541597,17.2061625 C84.4911095,17.2061625 83.6412835,14.9857703 83.6412835,13.3970868 C83.6412835,11.8532213 84.4911095,9.57389356 87.3541597,9.57389356 C90.2173234,9.57389356 91.0671494,11.8532213 91.0671494,13.3970868 L91.0671494,13.3970868 Z" id="Fill-9" fill="#293337"></path>
                        <path d="M97.4055107,13.3970868 C97.4055107,12.6766387 97.196349,11.3677311 95.5712272,11.3677311 C95.228002,11.3677311 94.6465302,11.5297479 94.3480686,11.7208964 L94.3480686,14.8387675 C94.5418925,15.1034174 95.0789417,15.4122129 95.6906346,15.4122129 C97.226002,15.4122129 97.4055107,13.9856583 97.4055107,13.3970868 L97.4055107,13.3970868 Z M99.4036244,13.3970868 C99.4036244,14.9706443 98.6134452,17.2061625 95.8395814,17.2061625 C95.228002,17.2061625 94.3185292,16.9416246 93.8858905,16.5592157 L93.7961361,16.8384314 C93.751827,16.9706443 93.6175363,17.0738375 93.4685896,17.0738375 L92.5882016,17.0738375 C92.4545926,17.0738375 92.3351853,16.9560784 92.3351853,16.8238655 L92.3351853,7.01445378 C92.3351853,6.88257703 92.4545926,6.76481793 92.5882016,6.76481793 L94.0950522,6.76481793 C94.2286612,6.76481793 94.3480686,6.88257703 94.3480686,7.01445378 L94.3480686,9.83854342 C94.7061771,9.67652661 95.198349,9.5880112 95.6906346,9.5880112 C98.6878618,9.5880112 99.4036244,11.7651541 99.4036244,13.3970868 L99.4036244,13.3970868 Z" id="Fill-10" fill="#293337"></path>
                        <path d="M102.728739,16.8238655 C102.728739,16.9560784 102.609332,17.0738375 102.475836,17.0738375 L100.95467,17.0738375 C100.820039,17.0738375 100.700745,16.9560784 100.700745,16.8238655 L100.700745,9.97086835 C100.700745,9.83854342 100.820039,9.72078431 100.95467,9.72078431 L102.475836,9.72078431 C102.609332,9.72078431 102.728739,9.83854342 102.728739,9.97086835 L102.728739,16.8238655 L102.728739,16.8238655 Z M101.729966,6.19137255 C102.371312,6.19137255 102.863484,6.69142857 102.863484,7.3232493 C102.863484,7.97064426 102.371312,8.4410084 101.729966,8.4410084 C101.074078,8.4410084 100.581906,7.97064426 100.581906,7.3232493 C100.581906,6.69142857 101.074078,6.19137255 101.729966,6.19137255 L101.729966,6.19137255 Z" id="Fill-11" fill="#293337"></path>
                        <path d="M106.397306,16.8238655 C106.397306,16.9560784 106.278012,17.0738375 106.144403,17.0738375 L104.637553,17.0738375 C104.503944,17.0738375 104.384536,16.9560784 104.384536,16.8238655 L104.384536,9.97086835 C104.384536,9.83854342 104.503944,9.72078431 104.637553,9.72078431 L105.502716,9.72078431 C105.651663,9.72078431 105.786295,9.82341737 105.831172,9.95619048 L105.935242,10.249972 C106.501944,9.79428571 107.172715,9.60302521 107.814402,9.60302521 C110.647345,9.60302521 111.020337,11.5589916 111.020337,13.2793277 L111.020337,16.8238655 C111.020337,16.9560784 110.900929,17.0738375 110.766752,17.0738375 L109.216161,17.0738375 C109.081416,17.0738375 108.962122,16.9560784 108.962122,16.8238655 L108.962122,13.2793277 C108.962122,12.4854902 108.843282,11.3828571 107.739986,11.3828571 C107.113523,11.3828571 106.636121,11.6912045 106.397306,12.0146779 L106.397306,16.8238655" id="Fill-12" fill="#293337"></path>
                        <path d="M27.9050819,5.28952381 L31.8684749,8.12526611 C32.2102231,8.38666667 31.973567,8.95282913 31.6113685,8.9080112 L27.3505363,8.29803922 C27.1613705,8.27170868 27.0400317,8.06868347 27.089567,7.86117647 L27.4127963,5.5112605 C27.4705118,5.27170868 27.7219376,5.15831933 27.9050819,5.28952381" id="Fill-13" fill="#293337"></path>
                        <path d="M1.3580174,17.6206162 C0.277556807,17.8436975 -0.433888434,16.5445378 0.345951894,15.7753501 L13.0736868,3.22352941 C17.7465937,-1.38532213 23.6591331,-1.51764706 26.4564012,1.9664986 C29.1472139,5.3189916 29.0058792,12.0221849 19.2345844,13.9777031 C12.5411822,15.3168627 5.49682907,16.7648179 1.3580174,17.6206162" id="Fill-15" fill="#293337"></path>
                        <path d="M24.6823327,3.96784314 C24.6823327,4.62812325 24.309,5.1632493 23.8488669,5.1632493 C23.3881658,5.1632493 23.0142651,4.62812325 23.0142651,3.96784314 C23.0142651,3.30733894 23.3881658,2.77232493 23.8488669,2.77232493 C24.309,2.77232493 24.6823327,3.30733894 24.6823327,3.96784314" id="Fill-17" fill="#FFFFFF"></path>
                        <path d="M12.4385896,18.4996078 C12.7687492,18.8246499 12.7993112,19.3203361 12.5085752,19.6071709 C12.2172712,19.8941176 11.7148741,19.8631933 11.3852825,19.5387115 L9.87854555,18.052437 C9.54895394,17.7279552 9.51839202,17.2319328 9.80912794,16.944986 C10.0998639,16.6582633 10.6028291,16.6891877 10.9324207,17.0141176 L12.4385896,18.4996078" id="Fill-18" fill="#293337"></path>
                        <path d="M15.3635589,17.8298039 C15.6231648,18.0858263 15.6461146,18.4789916 15.4140031,18.7076751 C15.1824596,18.9362465 14.783564,18.9141737 14.52339,18.657591 L13.3359058,17.4862745 C13.0757318,17.2302521 13.0533501,16.8373109 13.2848936,16.6084034 C13.5175732,16.3798319 13.9153327,16.4019048 14.1755067,16.6579272 L15.3635589,17.8298039" id="Fill-19" fill="#293337"></path>
                    </g>
                </g>
            </g>
        </g>
    </g>
</svg>