<?xml version="1.0" encoding="utf-8"?>
<!-- Generator: Adobe Illustrator 18.0.0, SVG Export Plug-In . SVG Version: 6.00 Build 0)  -->
<!DOCTYPE svg PUBLIC "-//W3C//DTD SVG 1.1//EN" "http://www.w3.org/Graphics/SVG/1.1/DTD/svg11.dtd">
<svg version="1.1" id="Layer_1" xmlns:sketch="http://www.bohemiancoding.com/sketch/ns"
	 xmlns="http://www.w3.org/2000/svg" xmlns:xlink="http://www.w3.org/1999/xlink" x="0px" y="0px" viewBox="0 0 28 25"
	 enable-background="new 0 0 28 25" xml:space="preserve">
<title>Oval 62 + user60</title>
<desc>Created with Sketch.</desc>
<g id="Comps" sketch:type="MSPage">
	
		<g id="Table-_x28_Selected_x29_-_x5B_AL-2014-08-04_x5D_" transform="translate(-1068.000000, -16.000000)" sketch:type="MSArtboardGroup">
		<g id="Group" sketch:type="MSLayerGroup">
			<g id="Oval-62-_x2B_-user60" transform="translate(1068.000000, 16.000000)" sketch:type="MSShapeGroup">
				<g id="user60">
					<path id="Shape" d="M0,14.6c0,3.5,1.2,6.7,3.2,9.2c0.3-2.6,2.7-4.7,6.1-5.7c1.2,1.2,2.9,2,4.6,2c1.7,0,3.3-0.7,4.5-1.9
						c3.4,1.1,5.8,3.4,5.9,6.1c2.2-2.6,3.5-6,3.5-9.7C27.8,6.5,21.6,0,13.9,0S0,6.5,0,14.6z M13.9,18.3c-0.9,0-1.7-0.3-2.5-0.7
						c-1.8-1.1-3-3.3-3-5.8c0-3.6,2.5-6.5,5.5-6.5s5.5,2.9,5.5,6.5c0,2.6-1.3,4.8-3.1,5.8C15.6,18.1,14.8,18.3,13.9,18.3L13.9,18.3z
						"/>
				</g>
			</g>
		</g>
	</g>
</g>
</svg>
