<?xml version="1.0" encoding="utf-8"?>
<!-- Generator: Adobe Illustrator 18.0.0, SVG Export Plug-In . SVG Version: 6.00 Build 0)  -->
<!DOCTYPE svg PUBLIC "-//W3C//DTD SVG 1.1//EN" "http://www.w3.org/Graphics/SVG/1.1/DTD/svg11.dtd">
<svg version="1.1" id="Layer_1" xmlns:sketch="http://www.bohemiancoding.com/sketch/ns"
	 xmlns="http://www.w3.org/2000/svg" xmlns:xlink="http://www.w3.org/1999/xlink" x="0px" y="0px" viewBox="0 0 19 12"
	 enable-background="new 0 0 19 12" xml:space="preserve">
<title>Fill 137</title>
<desc>Created with Sketch.</desc>
<g id="Comps" sketch:type="MSPage">
	
		<g id="Table-_x28_Selected_x29_-_x5B_AL-2014-08-04_x5D_" transform="translate(-31.000000, -111.000000)" sketch:type="MSArtboardGroup" opacity="0.5">
		<path id="Fill-137" sketch:type="MSShapeGroup" d="M47.4,114.4c-0.3,0.7-0.5,1.4-0.8,2c1,1.3,1.5,3,1.5,4.8c0,0.3,0,0.6,0,0.9
			c0,0.5,0.3,0.9,0.9,1c0,0,0.1,0,0.1,0c0.5,0,0.9-0.4,0.9-0.8c0-0.3,0-0.7,0-1C50,118.5,49,116.1,47.4,114.4L47.4,114.4z
			 M40.5,113.2c0.4,0,0.8,0,1.2,0.1c0.4-0.5,0.9-1,1.3-1.6c-0.8-0.2-1.7-0.3-2.6-0.3c-5.3,0-9.5,4.3-9.5,9.7c0,0.3,0,0.7,0,1
			c0,0.5,0.5,0.9,1,0.8c0.5,0,0.9-0.5,0.9-1c0-0.3,0-0.6,0-0.8C32.9,116.7,36.2,113.2,40.5,113.2L40.5,113.2z M38.7,120.1
			c-0.7,1.1-0.2,2,0.7,2.5c0.9,0.5,1.9,0.4,2.6-0.7c0.7-1.1,4.8-10.7,4.4-10.9C46.1,110.8,39.4,119,38.7,120.1L38.7,120.1z"/>
	</g>
</g>
</svg>
