<?xml version="1.0" encoding="utf-8"?>
<!-- Generator: Adobe Illustrator 18.0.0, SVG Export Plug-In . SVG Version: 6.00 Build 0)  -->
<!DOCTYPE svg PUBLIC "-//W3C//DTD SVG 1.1//EN" "http://www.w3.org/Graphics/SVG/1.1/DTD/svg11.dtd">
<svg version="1.1" id="Layer_1" xmlns:sketch="http://www.bohemiancoding.com/sketch/ns"
	 xmlns="http://www.w3.org/2000/svg" xmlns:xlink="http://www.w3.org/1999/xlink" x="0px" y="0px" viewBox="0 0 13 18"
	 enable-background="new 0 0 13 18" xml:space="preserve">
<title>Fill 238</title>
<desc>Created with Sketch.</desc>
<g id="Comps" sketch:type="MSPage">
	
		<g id="Table-_x28_Selected_x29_-_x5B_AL-2014-08-04_x5D_" transform="translate(-308.000000, -174.000000)" sketch:type="MSArtboardGroup">
		<path id="Fill-238" sketch:type="MSShapeGroup" fill-opacity="0.5" d="M316.3,177.7l-1.1-1.1h-1.4l-1.1,1.1h-1.5
			c0,0,1.6-1.9,1.8-2.1c0.2-0.2,0.3-0.3,0.5-0.3h1.7c0.2,0,0.4,0.1,0.5,0.3c0.2,0.2,1.8,2.1,1.8,2.1H316.3L316.3,177.7z
			 M317.2,175.9l-0.7-0.8c-0.3-0.4-0.6-0.5-1.2-0.5h-1.6c-0.6,0-0.9,0.1-1.2,0.5l-0.7,0.8c-2.2,0.4-3.8,1.4-3.8,2.1v0.1
			c0,1.3,2.9,2.3,6.5,2.3c3.6,0,6.5-1,6.5-2.3V178C321,177.2,319.4,176.2,317.2,175.9L317.2,175.9z M308.8,180.9l0.9,8.1
			c0,0.4,2,1.6,4.7,1.6c2.8,0,4.7-1.3,4.7-1.6l0.9-8.1c-1.4,0.8-3.6,1.2-5.7,1.2C312.4,182,310.3,181.6,308.8,180.9L308.8,180.9z"/>
	</g>
</g>
</svg>
