<?xml version="1.0" encoding="utf-8"?>
<!-- Generator: Adobe Illustrator 18.0.0, SVG Export Plug-In . SVG Version: 6.00 Build 0)  -->
<!DOCTYPE svg PUBLIC "-//W3C//DTD SVG 1.1//EN" "http://www.w3.org/Graphics/SVG/1.1/DTD/svg11.dtd">
<svg version="1.1" id="Layer_1" xmlns:sketch="http://www.bohemiancoding.com/sketch/ns"
	 xmlns="http://www.w3.org/2000/svg" xmlns:xlink="http://www.w3.org/1999/xlink" x="0px" y="0px" viewBox="0 0 16 18"
	 enable-background="new 0 0 16 18" xml:space="preserve">
<title>Fill 237</title>
<desc>Created with Sketch.</desc>
<g id="Comps" sketch:type="MSPage">
	
		<g id="Table-_x28_Selected_x29_-_x5B_AL-2014-08-04_x5D_" transform="translate(-422.000000, -175.000000)" sketch:type="MSArtboardGroup">
		<path id="Fill-237" sketch:type="MSShapeGroup" fill-opacity="0.5" d="M434.5,190.4l-5.5-1.5l0.4-1.6l3.1-0.8
			c0.3-0.1,0.5-0.4,0.5-0.8l-1.2-4.5l4.8,1.3L434.5,190.4L434.5,190.4z M423.3,178.5l6.3-1.7l2.3,8.7l-6.3,1.7L423.3,178.5
			L423.3,178.5z M437.5,181.5l-6-1.6l-1-3.9c-0.1-0.3-0.4-0.5-0.8-0.4l-7.3,1.9c-0.3,0.1-0.5,0.4-0.5,0.8l2.6,9.6
			c0.1,0.3,0.4,0.5,0.8,0.4l2.9-0.8l-0.4,1.5c-0.1,0.3,0.1,0.7,0.5,0.8l6.5,1.7c0.3,0.1,0.7-0.1,0.8-0.4l2.4-8.9
			C438.1,181.9,437.9,181.6,437.5,181.5L437.5,181.5z"/>
	</g>
</g>
</svg>
