<?xml version="1.0" encoding="utf-8"?>
<!-- Generator: Adobe Illustrator 18.0.0, SVG Export Plug-In . SVG Version: 6.00 Build 0)  -->
<!DOCTYPE svg PUBLIC "-//W3C//DTD SVG 1.1//EN" "http://www.w3.org/Graphics/SVG/1.1/DTD/svg11.dtd">
<svg version="1.1" id="Layer_1" xmlns:sketch="http://www.bohemiancoding.com/sketch/ns"
	 xmlns="http://www.w3.org/2000/svg" xmlns:xlink="http://www.w3.org/1999/xlink" x="0px" y="0px" viewBox="0 0 20 14"
	 enable-background="new 0 0 20 14" xml:space="preserve">
<title>Fill 59</title>
<desc>Created with Sketch.</desc>
<g id="Comps" sketch:type="MSPage">
	
		<g id="Table-_x28_Selected_x29_-_x5B_AL-2014-08-04_x5D_" transform="translate(-31.000000, -147.000000)" sketch:type="MSArtboardGroup" opacity="0.5">
		<path id="Fill-59" sketch:type="MSShapeGroup" d="M49.1,150.6c-0.6,0.3-7.4,3.9-7.7,4c-0.3,0.2-0.6,0.2-0.9,0.2
			c-0.3,0-0.6,0-0.9-0.2c-0.3-0.2-7.2-3.7-7.7-4c-0.4-0.2-0.4,0-0.4,0.2v7.3c0,0.4,0.6,1,1,1h16c0.4,0,1-0.5,1-1v-7.3
			C49.5,150.6,49.5,150.4,49.1,150.6L49.1,150.6z M32.1,148.6c0.5,0.3,7.3,3.9,7.5,4c0.3,0.1,0.6,0.2,0.9,0.2c0.3,0,0.7-0.1,0.9-0.2
			c0.3-0.1,7-3.8,7.5-4c0.5-0.3,1-1.1,0.1-1.1H32C31.1,147.5,31.6,148.3,32.1,148.6L32.1,148.6z"/>
	</g>
</g>
</svg>
