<?xml version="1.0" encoding="utf-8"?>
<!-- Generator: Adobe Illustrator 18.0.0, SVG Export Plug-In . SVG Version: 6.00 Build 0)  -->
<!DOCTYPE svg PUBLIC "-//W3C//DTD SVG 1.1//EN" "http://www.w3.org/Graphics/SVG/1.1/DTD/svg11.dtd">
<svg version="1.1" id="Layer_1" xmlns:sketch="http://www.bohemiancoding.com/sketch/ns"
	 xmlns="http://www.w3.org/2000/svg" xmlns:xlink="http://www.w3.org/1999/xlink" x="0px" y="0px" viewBox="0 0 22 15"
	 enable-background="new 0 0 22 15" xml:space="preserve">
<title>Fill 223</title>
<desc>Created with Sketch.</desc>
<g id="Comps" sketch:type="MSPage">
	
		<g id="Table-_x28_Selected_x29_-_x5B_AL-2014-08-04_x5D_" transform="translate(-30.000000, -180.000000)" sketch:type="MSArtboardGroup" opacity="0.5">
		<path id="Fill-223" sketch:type="MSShapeGroup" d="M46.2,184.3c-0.3,0-0.5,0-0.8,0.1c-0.7-2.1-2.7-3.7-5.1-3.7
			c-2.9,0-5.3,2.3-5.3,5.2c0,0.3,0,0.5,0.1,0.8c-0.1,0-0.3,0-0.4,0c-2,0-3.6,1.6-3.6,3.5c0,2,1.6,3.5,3.6,3.5h5v-3.8h-2.1l3.5-4.6
			l3.5,4.6h-2.1v3.8h3.8c2.6,0,4.8-2.1,4.8-4.7C51,186.4,48.9,184.3,46.2,184.3"/>
	</g>
</g>
</svg>
