<?xml version="1.0" encoding="utf-8"?>
<!-- Generator: Adobe Illustrator 18.0.0, SVG Export Plug-In . SVG Version: 6.00 Build 0)  -->
<!DOCTYPE svg PUBLIC "-//W3C//DTD SVG 1.1//EN" "http://www.w3.org/Graphics/SVG/1.1/DTD/svg11.dtd">
<svg version="1.1" id="Layer_1" xmlns:sketch="http://www.bohemiancoding.com/sketch/ns"
	 xmlns="http://www.w3.org/2000/svg" xmlns:xlink="http://www.w3.org/1999/xlink" x="0px" y="0px" viewBox="0 0 16 18"
	 enable-background="new 0 0 16 18" xml:space="preserve">
<title>Fill 167</title>
<desc>Created with Sketch.</desc>
<g id="Comps" sketch:type="MSPage">
	
		<g id="Table-_x28_Selected_x29_-_x5B_AL-2014-08-04_x5D_" transform="translate(-365.000000, -174.000000)" sketch:type="MSArtboardGroup">
		<path id="Fill-167" sketch:type="MSShapeGroup" fill-opacity="0.5" d="M375.1,175.1l0,5.7l2.2-2.3c2.2,2.4,2.2,6.1-0.1,8.4
			c-0.9,0.9-2.1,1.5-3.3,1.7l0.1,2c1.7-0.2,3.4-1,4.7-2.3c3.1-3.1,3.1-8.1,0.1-11.3l1.7-1.7L375.1,175.1L375.1,175.1z M368.6,186.7
			c-2.2-2.4-2.2-6.1,0.1-8.4c0.9-0.9,2.1-1.5,3.3-1.7l-0.1-2c-1.7,0.2-3.4,1-4.7,2.3c-3.1,3.1-3.1,8.1-0.1,11.2l-1.7,1.7l5.4,0.3
			l0-5.7L368.6,186.7L368.6,186.7z"/>
	</g>
</g>
</svg>
