<?xml version="1.0" encoding="UTF-8" standalone="no"?>
<svg width="16px" height="17px" viewBox="0 0 16 17" version="1.1" xmlns="http://www.w3.org/2000/svg" xmlns:xlink="http://www.w3.org/1999/xlink" xmlns:sketch="http://www.bohemiancoding.com/sketch/ns">
    <!-- Generator: Sketch 3.0.4 (8053) - http://www.bohemiancoding.com/sketch -->
    <title>settings1.svg</title>
    <desc>Created with Sketch.</desc>
    <defs></defs>
    <g id="Page-1" stroke="none" stroke-width="1" fill="none" fill-rule="evenodd" sketch:type="MSPage">
        <g id="settings" sketch:type="MSLayerGroup" fill="#FFFFFF">
            <g id="Comps" sketch:type="MSShapeGroup">
                <g id="Table-_x28_Selected_x29_-_x5B_AL-2014-08-04_x5D_">
                    <path d="M8,12.2 C6.1,12.2 4.5,10.5 4.5,8.5 C4.5,6.5 6.1,4.8 8,4.8 C9.9,4.8 11.5,6.5 11.5,8.5 C11.5,10.5 9.9,12.2 8,12.2 L8,12.2 L8,12.2 Z M14.5,8.5 C14.5,7.4 15.1,6.6 16,6 C15.8,5.4 15.6,4.8 15.3,4.3 C14.3,4.6 13.4,4.2 12.7,3.4 C12,2.7 11.8,1.8 12,0.7 C11.5,0.4 11,0.2 10.4,-1.42108547e-14 C9.9,1 8.9,1.6 7.9,1.6 C6.9,1.6 5.9,0.9 5.4,-1.42108547e-14 C4.8,0.2 4.3,0.4 3.8,0.7 C4.1,1.8 3.9,2.7 3.1,3.4 C2.4,4.1 1.6,4.6 0.5,4.3 C0.2,4.8 5.68434189e-14,5.4 -0.2,6 C0.7,6.6 1.3,7.4 1.3,8.5 C1.3,9.6 0.7,10.6 -0.2,11.2 C5.68434189e-14,11.8 0.2,12.4 0.5,12.9 C1.5,12.6 2.4,12.8 3.1,13.6 C3.8,14.4 4,15.2 3.8,16.3 C4.3,16.6 4.8,16.8 5.4,17 C5.9,16 6.9,15.4 7.9,15.4 C8.9,15.4 9.9,16.1 10.4,17 C11,16.8 11.5,16.6 12,16.3 C11.7,15.2 11.9,14.3 12.6,13.6 C13.3,12.9 14.1,12.4 15.2,12.7 C15.5,12.2 15.7,11.6 15.9,11 C15.1,10.4 14.5,9.6 14.5,8.5 L14.5,8.5 L14.5,8.5 Z" id="Fill-74"></path>
                </g>
            </g>
        </g>
    </g>
</svg>